#define images_width 15
#define images_height 15
static unsigned short images_bits[] = {
   0x0000, 0x0000, 0x0200, 0x0220, 0x1000, 0x2778, 0x0416, 0x0400, 0x0460,
   0x0420, 0x0420, 0x0020, 0x0700, 0x0780, 0x0100 };
